<svg xmlns="http://www.w3.org/2000/svg" style="display:none">
  <symbol id="icon-notes" viewBox="0 0 24 24"><path d="M6 3h9l3 3v15H6z" fill="none" stroke="currentColor" stroke-width="2"/><path d="M14 3v4h4M9 11h6M9 15h6" stroke="currentColor" stroke-width="2" stroke-linecap="round"/></symbol>
  <symbol id="icon-setup" viewBox="0 0 24 24"><path d="M4 17h16M7 17l2-10h6l2 10" fill="none" stroke="currentColor" stroke-width="2" stroke-linecap="round"/><path d="M9 7h6M10 12h4" stroke="currentColor" stroke-width="2" stroke-linecap="round"/></symbol>
  <symbol id="icon-move" viewBox="0 0 24 24"><path d="M4 18h16M6 18V6M6 6l4 4M6 6l-4 4M6 18l6-6 6 3" fill="none" stroke="currentColor" stroke-width="2" stroke-linecap="round" stroke-linejoin="round"/></symbol>
  <symbol id="icon-tools" viewBox="0 0 24 24"><path d="M14 6l4 4-9 9H5v-4zM15 5l4 4" fill="none" stroke="currentColor" stroke-width="2" stroke-linecap="round" stroke-linejoin="round"/></symbol>
  <symbol id="icon-gcode" viewBox="0 0 24 24"><path d="M8 8l-4 4 4 4M16 8l4 4-4 4M14 5l-4 14" fill="none" stroke="currentColor" stroke-width="2" stroke-linecap="round" stroke-linejoin="round"/></symbol>
  <symbol id="icon-saved" viewBox="0 0 24 24"><path d="M5 4h14v16l-7-4-7 4z" fill="none" stroke="currentColor" stroke-width="2" stroke-linejoin="round"/></symbol>
</svg>
